<svg width="20" height="16" viewBox="0 0 20 16" fill="none" xmlns="http://www.w3.org/2000/svg">
<path fill-rule="evenodd" clip-rule="evenodd" d="M14.7075 15.8233C14.9651 16.0057 15.2971 16.0513 15.5931 15.9393C15.8891 15.8265 16.1067 15.5737 16.1723 15.2673C16.8675 12.0001 18.5539 3.73052 19.1867 0.758519C19.2347 0.534519 19.1547 0.301719 18.9787 0.152119C18.8027 0.00251863 18.5587 -0.0406815 18.3411 0.0401186C14.9867 1.28172 4.65632 5.15772 0.433919 6.72013C0.165918 6.81933 -0.00848173 7.07693 0.000318283 7.35933C0.00991829 7.64253 0.200319 7.88813 0.474719 7.97053C2.36832 8.53693 4.85392 9.32493 4.85392 9.32493C4.85392 9.32493 6.01552 12.8329 6.62113 14.6169C6.69713 14.8409 6.87233 15.0169 7.10353 15.0777C7.33393 15.1377 7.58033 15.0745 7.75233 14.9121C8.72513 13.9937 10.2291 12.5737 10.2291 12.5737C10.2291 12.5737 13.0867 14.6689 14.7075 15.8233ZM5.89952 8.88173L7.24273 13.3121L7.54113 10.5065C7.54113 10.5065 12.7307 5.82573 15.6891 3.15772C15.7755 3.07932 15.7875 2.94812 15.7155 2.85612C15.6443 2.76412 15.5131 2.74252 15.4147 2.80492C11.9859 4.99452 5.89952 8.88173 5.89952 8.88173Z" fill="#0088CC"/>
</svg>
