<svg width="13" height="13" viewBox="0 0 13 13" fill="none" xmlns="http://www.w3.org/2000/svg">
<path d="M12.9305 1.70438C12.9305 1.67364 12.8996 1.64291 12.8842 1.64291C12.8533 1.64291 12.8225 1.64291 12.807 1.65828L11.4182 3.01068L9.98299 1.58144L11.3719 0.198299C11.4027 0.167562 11.4027 0.121458 11.3719 0.0907213C11.3564 0.0753531 11.3564 0.0753531 11.341 0.0753531C10.2916 -0.15517 9.2114 0.152194 8.42437 0.874499C7.68363 1.61217 7.86881 2.47279 7.99227 3.04141C8.0077 3.11825 8.02313 3.21046 8.03857 3.27194C7.54474 3.79446 3.8102 7.52893 3.25465 8.05144C3.19293 8.03608 3.1312 8.02071 3.05404 8.00534C2.48305 7.86703 1.64973 7.66724 0.878129 8.42028C0.152826 9.18869 -0.155814 10.2645 0.0756659 11.2941C0.0910978 11.3402 0.121962 11.3556 0.168258 11.3556C0.18369 11.3556 0.199122 11.3402 0.199122 11.3402L1.588 9.98784L3.02317 11.4171L1.6343 12.8002C1.60343 12.831 1.60343 12.8771 1.6343 12.9078C1.64973 12.9232 1.64973 12.9232 1.66516 12.9232C1.88121 12.9693 2.11269 13 2.34417 13C3.17749 13 3.97996 12.6926 4.5818 12.1086C5.32254 11.371 5.13735 10.5104 5.0139 9.94173C4.99847 9.86489 4.98303 9.77268 4.9676 9.71121C5.46143 9.18869 9.19596 5.45422 9.75151 4.9317L9.95213 4.97781C10.5077 5.11612 11.3719 5.33127 12.128 4.57823C12.8533 3.80982 13.1466 2.73405 12.9305 1.70438Z" fill="#BEBEBE"/>
</svg>
