<svg width="16" height="16" viewBox="0 0 16 16" fill="none" xmlns="http://www.w3.org/2000/svg">
<g clip-path="url(#clip0)">
<path d="M15.753 1.58948C15.5575 1.35046 15.2647 1.21875 14.9287 1.21875C14.7458 1.21875 14.5523 1.25732 14.3534 1.33325L0.809592 6.50328C0.0908451 6.77757 -0.0059563 7.18919 0.000269251 7.41026C0.00649481 7.6312 0.126489 8.03672 0.859641 8.26987C0.864036 8.27134 0.86843 8.27256 0.872824 8.2739L2.77223 8.81735L12.0227 4.09142C12.2532 3.9735 12.5356 4.06505 12.6534 4.29564C12.7459 4.47679 12.7088 4.68968 12.577 4.82982L12.5774 4.83019L7.43408 10.2951L7.28735 10.8897L9.12401 12.3687L11.6692 14.4182C11.6714 14.4199 11.6736 14.4217 11.6759 14.4234C11.9559 14.6407 12.2618 14.7554 12.5605 14.7556C13.1443 14.7556 13.609 14.3236 13.7444 13.6551L15.9635 2.69763C16.0525 2.25793 15.9777 1.86426 15.753 1.58948V1.58948Z" fill="#E95D2A"/>
<path d="M6.55359 9.95117C6.57226 9.87537 6.60986 9.8031 6.66711 9.74219L10.042 6.15613L3.77942 9.35559L5.20142 13.4224C5.28247 13.6541 5.40308 13.8513 5.55225 14.0057L6.55334 9.95105L6.55359 9.95117Z" fill="#E95D2A"/>
<path d="M6.42503 14.3822C6.76305 14.3794 7.0952 14.2368 7.38622 13.9689L8.42662 13.0109L7.03941 11.8939L6.42503 14.3822Z" fill="#E95D2A"/>
</g>
<defs>
<clipPath id="clip0">
<rect width="16" height="16" fill="white"/>
</clipPath>
</defs>
</svg>
